<svg width="463" height="500" viewBox="0 0 463 500" fill="none" xmlns="http://www.w3.org/2000/svg">
<path d="M176.381 500C142.085 500 111.463 495.098 84.5159 485.294C58.0587 475.49 37.481 460.539 22.7825 440.441C8.08413 420.343 0.489947 395.098 0 364.706C0 352.451 1.95979 338.971 5.87936 324.265C9.79894 309.559 17.1481 295.588 27.927 282.353C38.7058 268.627 53.6492 256.863 72.7571 247.059C92.355 237.255 117.342 230.882 147.719 227.941L167.562 224.265C189.12 210.539 205.533 198.775 216.802 188.971C228.07 178.676 235.665 168.873 239.584 159.559C243.994 150.245 246.198 140.196 246.198 129.412C246.198 118.137 242.769 109.314 235.91 102.941C229.54 96.5686 220.721 93.3823 209.452 93.3823C197.694 93.3823 188.14 97.0588 180.79 104.412C173.931 111.765 170.502 122.059 170.502 135.294C170.502 142.157 171.971 149.265 174.911 156.618C177.851 163.48 183.24 172.059 191.079 182.353C198.919 192.157 210.187 205.147 224.886 221.324C239.584 237.01 258.937 257.353 282.944 282.353C305.972 305.882 325.57 325.735 341.738 341.912C357.906 358.088 372.115 370.588 384.363 379.412C397.102 388.235 409.351 393.873 421.11 396.324C433.358 398.775 447.322 398.775 463 396.324L453.446 500C431.398 500 411.801 498.529 394.652 495.588C377.994 492.647 361.336 486.765 344.678 477.941C328.02 469.118 309.402 456.127 288.824 438.971C268.736 421.323 243.994 398.039 214.597 369.118C178.341 333.333 148.944 303.676 126.406 280.147C103.869 256.618 86.7206 236.52 74.9619 219.853C63.6931 203.186 55.854 187.99 51.4444 174.265C47.5249 160.539 45.5651 145.588 45.5651 129.412C45.5651 108.333 51.1995 87.9902 62.4683 68.3824C73.737 48.2843 91.1302 31.8627 114.648 19.1176C138.655 6.37254 169.277 0 206.513 0C244.239 0 274.37 5.88236 296.908 17.6471C319.445 29.4118 335.859 44.6078 346.148 63.2353C356.436 81.3725 361.581 100.245 361.581 119.853C361.581 143.382 355.702 165.196 343.943 185.294C332.184 204.902 314.301 221.569 290.294 235.294C266.776 249.02 236.889 259.314 200.633 266.176L178.586 279.412C164.377 288.725 153.353 297.059 145.514 304.412C138.165 311.765 133.021 319.363 130.081 327.206C127.141 335.049 125.671 344.118 125.671 354.412C125.671 364.706 128.611 373.775 134.49 381.618C140.37 389.461 148.699 395.588 159.478 400C170.257 403.922 182.995 405.882 197.694 405.882C218.761 405.882 237.624 402.696 254.283 396.324C270.941 389.951 287.354 381.863 303.522 372.059L314.546 355.147C322.385 340.931 328.754 325.49 333.654 308.824C339.043 291.667 341.493 271.324 341.003 247.794L437.278 248.529C436.298 279.902 430.418 308.824 419.64 335.294C409.351 361.274 394.162 383.333 374.075 401.471L348.352 419.853C333.164 444.363 310.871 463.971 281.475 478.676C252.568 492.892 217.537 500 176.381 500Z" fill="black"/>
</svg>
