<svg width="512" height="512" viewBox="0 0 512 512" fill="none" xmlns="http://www.w3.org/2000/svg">
<path d="M286.835 237.064L369.378 309.12L451.92 415.307L343.761 494L267.86 382.124L225.165 283.521L256.474 260.766L286.835 237.064ZM225.165 237.064L256.474 260.766L286.835 283.521L244.14 382.124L168.239 494L60.0797 415.307L143.571 309.12L225.165 237.064ZM47.7457 121.395L174.88 167.852L267.86 222.842L256.474 260.766L244.14 296.794L135.981 286.365L6 249.389L47.7457 121.395ZM322.888 19L318.144 153.631L295.374 260.766H256.474H217.575L193.856 153.631L189.112 19H322.888ZM465.203 121.395L506 249.389L376.019 286.365L267.86 296.794L256.474 260.766L244.14 222.842L337.12 167.852L465.203 121.395Z" fill="black"/>
</svg>
