<svg width="512" height="512" viewBox="0 0 512 512" fill="none" xmlns="http://www.w3.org/2000/svg">
<path d="M286.287 237.26L366.023 306.737L445.759 409.124L341.277 485L267.956 377.128L226.713 282.054L256.958 260.114L286.287 237.26ZM226.713 237.26L256.958 260.114L286.287 282.054L245.044 377.128L171.723 485L67.241 409.124L147.894 306.737L226.713 237.26ZM55.3264 125.731L178.139 170.525L267.956 223.547L256.958 260.114L245.044 294.852L140.562 284.796L15 249.144L55.3264 125.731ZM321.114 27L316.531 156.812L294.535 260.114H256.958H219.381L196.469 156.812L191.886 27H321.114ZM458.59 125.731L498 249.144L372.438 284.796L267.956 294.852L256.958 260.114L245.044 223.547L334.862 170.525L458.59 125.731Z" fill="#01ADB5"/>
</svg>
