<svg width="1836" height="288" viewBox="0 0 1836 288" fill="none" xmlns="http://www.w3.org/2000/svg">
<path d="M170.706 132.657L216.765 172.856L262.824 232.098L202.471 276L160.118 213.585L136.294 158.575L153.765 145.88L170.706 132.657ZM136.294 132.657L153.765 145.88L170.706 158.575L146.882 213.585L104.529 276L44.1765 232.098L90.7647 172.856L136.294 132.657ZM37.2941 68.1257L108.235 94.0439L160.118 124.723L153.765 145.88L146.882 165.98L86.5294 160.162L14 139.533L37.2941 68.1257ZM190.824 11L188.176 86.1098L175.471 145.88H153.765H132.059L118.824 86.1098L116.176 11H190.824ZM270.235 68.1257L293 139.533L220.471 160.162L160.118 165.98L153.765 145.88L146.882 124.723L198.765 94.0439L270.235 68.1257Z" fill="#00ADB4"/>
<path d="M1751.98 218C1742.51 218 1734.04 215.933 1726.58 211.8C1719.24 207.667 1713.51 201.733 1709.38 194C1705.24 186.133 1703.18 176.8 1703.18 166C1703.18 155.2 1705.24 145.933 1709.38 138.2C1713.51 130.333 1719.18 124.333 1726.38 120.2C1733.58 116.067 1741.78 114 1750.98 114C1760.31 114 1768.24 116 1774.78 120C1781.44 124 1786.51 129.467 1789.98 136.4C1793.44 143.2 1795.18 150.867 1795.18 159.4C1795.18 161.667 1795.11 163.733 1794.98 165.6C1794.84 167.467 1794.64 169.133 1794.38 170.6H1713.58V156.4H1787.38L1779.18 158C1779.18 148.4 1776.51 141 1771.18 135.8C1765.98 130.6 1759.11 128 1750.58 128C1744.04 128 1738.38 129.533 1733.58 132.6C1728.91 135.533 1725.24 139.867 1722.58 145.6C1720.04 151.2 1718.78 158 1718.78 166C1718.78 173.867 1720.11 180.667 1722.78 186.4C1725.44 192.133 1729.18 196.533 1733.98 199.6C1738.91 202.533 1744.78 204 1751.58 204C1758.91 204 1764.84 202.6 1769.38 199.8C1774.04 197 1777.78 193.2 1780.58 188.4L1793.18 195.8C1790.64 200.333 1787.38 204.267 1783.38 207.6C1779.51 210.933 1774.91 213.533 1769.58 215.4C1764.38 217.133 1758.51 218 1751.98 218Z" fill="black"/>
<path d="M1631.66 216V116H1644.66L1646.86 132.4C1649.66 126.267 1653.73 121.667 1659.06 118.6C1664.53 115.533 1671.13 114 1678.86 114C1680.6 114 1682.46 114.133 1684.46 114.4C1686.6 114.667 1688.4 115.2 1689.86 116L1687.06 130.6C1685.6 130.067 1684 129.667 1682.26 129.4C1680.53 129.133 1678.06 129 1674.86 129C1670.73 129 1666.53 130.2 1662.26 132.6C1658.13 135 1654.66 138.667 1651.86 143.6C1649.06 148.4 1647.66 154.533 1647.66 162V216H1631.66Z" fill="black"/>
<path d="M1550.02 216V116H1563.02L1565.22 132.4C1568.02 126.267 1572.09 121.667 1577.42 118.6C1582.89 115.533 1589.49 114 1597.22 114C1598.95 114 1600.82 114.133 1602.82 114.4C1604.95 114.667 1606.75 115.2 1608.22 116L1605.42 130.6C1603.95 130.067 1602.35 129.667 1600.62 129.4C1598.89 129.133 1596.42 129 1593.22 129C1589.09 129 1584.89 130.2 1580.62 132.6C1576.49 135 1573.02 138.667 1570.22 143.6C1567.42 148.4 1566.02 154.533 1566.02 162V216H1550.02Z" fill="black"/>
<path d="M1471.5 114C1480.97 114 1489.3 116.067 1496.5 120.2C1503.83 124.333 1509.57 130.333 1513.7 138.2C1517.83 145.933 1519.9 155.2 1519.9 166C1519.9 176.8 1517.83 186.133 1513.7 194C1509.57 201.733 1503.83 207.667 1496.5 211.8C1489.3 215.933 1480.97 218 1471.5 218C1462.17 218 1453.83 215.933 1446.5 211.8C1439.17 207.667 1433.43 201.733 1429.3 194C1425.17 186.133 1423.1 176.8 1423.1 166C1423.1 155.2 1425.17 145.933 1429.3 138.2C1433.43 130.333 1439.17 124.333 1446.5 120.2C1453.83 116.067 1462.17 114 1471.5 114ZM1471.5 127.8C1464.7 127.8 1458.9 129.333 1454.1 132.4C1449.3 135.467 1445.57 139.867 1442.9 145.6C1440.37 151.2 1439.1 158 1439.1 166C1439.1 173.867 1440.37 180.667 1442.9 186.4C1445.57 192.133 1449.3 196.533 1454.1 199.6C1458.9 202.667 1464.7 204.2 1471.5 204.2C1478.3 204.2 1484.1 202.667 1488.9 199.6C1493.7 196.533 1497.37 192.133 1499.9 186.4C1502.57 180.667 1503.9 173.867 1503.9 166C1503.9 158 1502.57 151.2 1499.9 145.6C1497.37 139.867 1493.7 135.467 1488.9 132.4C1484.1 129.333 1478.3 127.8 1471.5 127.8Z" fill="black"/>
<path d="M1427.27 84V99H1381.27V216H1365.27V99H1319.27V84H1427.27Z" fill="black"/>
<path d="M1218.58 151.4C1218.58 143.933 1216.58 138.2 1212.58 134.2C1208.58 130.067 1202.91 128 1195.58 128C1188.64 128 1182.78 129.533 1177.98 132.6C1173.18 135.533 1169.64 140.333 1167.38 147L1154.38 139C1157.04 131.533 1161.98 125.533 1169.18 121C1176.38 116.333 1185.31 114 1195.98 114C1203.18 114 1209.71 115.267 1215.58 117.8C1221.44 120.2 1226.04 123.933 1229.38 129C1232.84 133.933 1234.58 140.333 1234.58 148.2V196.6C1234.58 201.4 1237.11 203.8 1242.18 203.8C1244.71 203.8 1247.18 203.467 1249.58 202.8L1248.78 215.4C1246.11 216.733 1242.64 217.4 1238.38 217.4C1234.51 217.4 1231.04 216.667 1227.98 215.2C1224.91 213.733 1222.51 211.533 1220.78 208.6C1219.04 205.533 1218.18 201.733 1218.18 197.2V195.2L1222.18 195.8C1220.58 201 1217.85 205.267 1213.98 208.6C1210.11 211.8 1205.78 214.2 1200.98 215.8C1196.18 217.267 1191.44 218 1186.78 218C1180.91 218 1175.44 217 1170.38 215C1165.31 213 1161.24 210 1158.18 206C1155.24 201.867 1153.78 196.8 1153.78 190.8C1153.78 183.333 1156.24 177.2 1161.18 172.4C1166.24 167.467 1173.24 164.133 1182.18 162.4L1221.78 154.6V167.8L1189.58 174.4C1183.04 175.733 1178.18 177.6 1174.98 180C1171.78 182.4 1170.18 185.733 1170.18 190C1170.18 194.133 1171.78 197.533 1174.98 200.2C1178.31 202.733 1182.98 204 1188.98 204C1192.84 204 1196.51 203.533 1199.98 202.6C1203.58 201.533 1206.78 200 1209.58 198C1212.38 195.867 1214.58 193.267 1216.18 190.2C1217.78 187 1218.58 183.267 1218.58 179V151.4Z" fill="black"/>
<path d="M1114.25 70V190.6C1114.25 195.667 1115.18 199.2 1117.05 201.2C1118.91 203.067 1121.91 204 1126.05 204C1128.71 204 1130.91 203.8 1132.65 203.4C1134.38 203 1136.71 202.267 1139.65 201.2L1137.05 215.2C1134.91 216.133 1132.58 216.8 1130.05 217.2C1127.51 217.733 1124.91 218 1122.25 218C1114.11 218 1108.05 215.8 1104.05 211.4C1100.18 207 1098.25 200.267 1098.25 191.2V70H1114.25Z" fill="black"/>
<path d="M957.251 218C947.785 218 939.318 215.933 931.851 211.8C924.518 207.667 918.785 201.733 914.651 194C910.518 186.133 908.451 176.8 908.451 166C908.451 155.2 910.518 145.933 914.651 138.2C918.785 130.333 924.451 124.333 931.651 120.2C938.851 116.067 947.051 114 956.251 114C965.585 114 973.518 116 980.051 120C986.718 124 991.785 129.467 995.251 136.4C998.718 143.2 1000.45 150.867 1000.45 159.4C1000.45 161.667 1000.38 163.733 1000.25 165.6C1000.12 167.467 999.918 169.133 999.651 170.6H918.851V156.4H992.651L984.451 158C984.451 148.4 981.785 141 976.451 135.8C971.251 130.6 964.385 128 955.851 128C949.318 128 943.651 129.533 938.851 132.6C934.185 135.533 930.518 139.867 927.851 145.6C925.318 151.2 924.051 158 924.051 166C924.051 173.867 925.385 180.667 928.051 186.4C930.718 192.133 934.451 196.533 939.251 199.6C944.185 202.533 950.051 204 956.851 204C964.185 204 970.118 202.6 974.651 199.8C979.318 197 983.051 193.2 985.851 188.4L998.451 195.8C995.918 200.333 992.651 204.267 988.651 207.6C984.785 210.933 980.185 213.533 974.851 215.4C969.651 217.133 963.785 218 957.251 218Z" fill="black"/>
<path d="M829.061 218C820.794 218 813.194 215.933 806.261 211.8C799.328 207.667 793.794 201.733 789.661 194C785.528 186.133 783.461 176.8 783.461 166C783.461 154.933 785.661 145.533 790.061 137.8C794.461 130.067 800.261 124.2 807.461 120.2C814.661 116.067 822.394 114 830.661 114C838.928 114 846.061 116.133 852.061 120.4C858.194 124.667 862.261 130.333 864.261 137.4L862.261 138.8V70H878.261V216H864.261L862.861 191.8L865.061 190.6C864.128 196.467 861.861 201.467 858.261 205.6C854.794 209.6 850.461 212.667 845.261 214.8C840.194 216.933 834.794 218 829.061 218ZM830.661 204C837.061 204 842.594 202.4 847.261 199.2C852.061 196 855.728 191.467 858.261 185.6C860.928 179.6 862.261 172.6 862.261 164.6C862.261 157 860.928 150.467 858.261 145C855.728 139.533 852.128 135.333 847.461 132.4C842.928 129.467 837.594 128 831.461 128C821.328 128 813.461 131.467 807.861 138.4C802.261 145.333 799.461 154.533 799.461 166C799.461 177.467 802.194 186.667 807.661 193.6C813.128 200.533 820.794 204 830.661 204Z" fill="black"/>
<path d="M682.995 70V190.6C682.995 195.667 683.928 199.2 685.795 201.2C687.662 203.067 690.662 204 694.795 204C697.462 204 699.662 203.8 701.395 203.4C703.128 203 705.462 202.267 708.395 201.2L705.795 215.2C703.662 216.133 701.328 216.8 698.795 217.2C696.262 217.733 693.662 218 690.995 218C682.862 218 676.795 215.8 672.795 211.4C668.928 207 666.995 200.267 666.995 191.2V70H682.995Z" fill="black"/>
<path d="M594.165 218C584.699 218 576.232 215.933 568.765 211.8C561.432 207.667 555.699 201.733 551.565 194C547.432 186.133 545.365 176.8 545.365 166C545.365 155.2 547.432 145.933 551.565 138.2C555.699 130.333 561.365 124.333 568.565 120.2C575.765 116.067 583.965 114 593.165 114C602.499 114 610.432 116 616.965 120C623.632 124 628.699 129.467 632.165 136.4C635.632 143.2 637.365 150.867 637.365 159.4C637.365 161.667 637.299 163.733 637.165 165.6C637.032 167.467 636.832 169.133 636.565 170.6H555.765V156.4H629.565L621.365 158C621.365 148.4 618.699 141 613.365 135.8C608.165 130.6 601.299 128 592.765 128C586.232 128 580.565 129.533 575.765 132.6C571.099 135.533 567.432 139.867 564.765 145.6C562.232 151.2 560.965 158 560.965 166C560.965 173.867 562.299 180.667 564.965 186.4C567.632 192.133 571.365 196.533 576.165 199.6C581.099 202.533 586.965 204 593.765 204C601.099 204 607.032 202.6 611.565 199.8C616.232 197 619.965 193.2 622.765 188.4L635.365 195.8C632.832 200.333 629.565 204.267 625.565 207.6C621.699 210.933 617.099 213.533 611.765 215.4C606.565 217.133 600.699 218 594.165 218Z" fill="black"/>
<path d="M459.231 116L489.031 157.8L490.031 159.2L531.031 216H511.431L480.431 172.6L478.631 170.4L439.231 116H459.231ZM530.431 116L490.831 169.4H489.831L455.431 216H436.831L480.431 158.6H481.631L511.631 116H530.431Z" fill="black"/>
<path d="M425.8 216H408.8L394.8 179.4H335L321 216H304.2L355.6 84H374.6L425.8 216ZM340.8 164.4H389L364.8 99.4L340.8 164.4Z" fill="black"/>
</svg>
