<svg width="325" height="500" viewBox="0 0 325 500" fill="none" xmlns="http://www.w3.org/2000/svg">
<path d="M194.317 500L144.479 451.246C163.981 433.911 179.871 415.674 192.15 396.533C204.429 377.393 213.457 355.905 219.236 332.069C225.014 308.234 227.903 280.968 227.903 250.271C227.903 219.574 225.014 192.308 219.236 168.472C213.457 144.276 204.429 122.607 192.15 103.467C179.871 83.9653 163.981 65.7277 144.479 48.7541L194.317 0C236.932 26.0022 269.254 59.7689 291.283 101.3C313.674 142.831 324.87 192.488 324.87 250.271C324.87 308.053 313.674 357.71 291.283 399.242C269.254 440.773 236.932 474.359 194.317 500Z" fill="black"/>
<path d="M60.6717 119.718C80.1734 119.718 95.1607 124.413 105.634 133.803C116.107 143.192 121.343 156.374 121.343 173.348C121.343 190.321 116.107 203.503 105.634 212.893C95.1607 222.282 80.1734 226.977 60.6717 226.977C41.8924 226.977 27.0856 222.282 16.2514 212.893C5.41712 203.503 0 190.321 0 173.348C0 156.374 5.41712 143.192 16.2514 133.803C27.0856 124.413 41.8924 119.718 60.6717 119.718ZM60.6717 293.066C80.1734 293.066 95.1607 297.761 105.634 307.151C116.107 316.54 121.343 329.722 121.343 346.696C121.343 363.669 116.107 376.851 105.634 386.24C95.1607 395.63 80.1734 400.325 60.6717 400.325C41.8924 400.325 27.0856 395.63 16.2514 386.24C5.41712 376.851 0 363.669 0 346.696C0 329.722 5.41712 316.54 16.2514 307.151C27.0856 297.761 41.8924 293.066 60.6717 293.066Z" fill="black"/>
</svg>
